<?xml version="1.0" encoding="UTF-8"?>
<svg version="1.1" xmlns="http://www.w3.org/2000/svg" width="1280" height="301">
<path d="M0 0 C12.72194533 10.87335765 21.58637624 25.30562948 22.92797852 42.24243164 C24.08756948 72.09882138 15.85205633 98.72333149 -4.75585938 121.03710938 C-11.37022484 128.05926556 -18.0316008 134.38533063 -26.29296875 139.453125 C-27.77410156 140.41798828 -27.77410156 140.41798828 -29.28515625 141.40234375 C-51.06561461 154.8549798 -77.66653567 160.13936107 -102.7265625 154.42578125 C-119.70731663 149.79466649 -133.75461245 140.85453561 -143.16796875 125.640625 C-153.48705007 106.77909664 -153.62102352 84.75752529 -147.89160156 64.45605469 C-139.45221411 36.21921346 -120.19813554 12.60920116 -94.45019531 -1.56103516 C-66.27055795 -16.50478224 -26.40594662 -21.22568178 0 0 Z M-101.609375 41.1171875 C-113.35848375 56.58944836 -119.16587267 74.11252529 -117.29296875 93.453125 C-115.13100796 103.41271963 -109.8806956 112.35167545 -101.44140625 118.171875 C-89.65663272 125.1998854 -75.7299639 126.47768055 -62.3203125 123.76953125 C-45.43131405 119.26205769 -30.18927023 108.85082957 -21.22558594 93.64208984 C-12.72326634 78.45829469 -8.42679588 62.47632107 -11.984375 45.0703125 C-15.16005772 35.52997696 -21.58590906 27.19431059 -30.421875 22.265625 C-55.40462674 10.44769722 -84.18657915 21.07950323 -101.609375 41.1171875 Z " fill="#FFFFFF" transform="translate(432.29296875,93.546875)"/>
<path d="M0 0 C1.82081085 -0.00856522 1.82081085 -0.00856522 3.67840576 -0.01730347 C5.03109731 -0.01854894 6.38378897 -0.01967401 7.73648071 -0.02069092 C9.15571217 -0.02531854 10.57494239 -0.03034313 11.99417114 -0.03573608 C15.85837109 -0.04887648 19.72255364 -0.05530944 23.58677244 -0.05974674 C26.00404437 -0.06267776 28.42131155 -0.06678285 30.83858109 -0.07125092 C38.40981092 -0.08493661 45.9810299 -0.09459527 53.55227125 -0.09845281 C62.27517784 -0.1029218 70.99792681 -0.12041103 79.7207855 -0.1494534 C86.47085459 -0.17114154 93.22087961 -0.18116105 99.97098315 -0.18249393 C103.9978107 -0.18353783 108.02449031 -0.1893553 112.05128098 -0.20731354 C115.84833173 -0.22391557 119.64512537 -0.22589161 123.44219971 -0.21717453 C125.48193243 -0.21604904 127.52165708 -0.22967655 129.56134033 -0.243927 C141.54195938 -0.19020879 152.6730901 1.52324931 162.29751587 9.14044189 C169.25733827 16.37983432 171.85417632 23.8372132 171.73501587 33.70294189 C171.72365601 35.02358643 171.72365601 35.02358643 171.71206665 36.37091064 C171.32464002 51.89059948 165.57664172 66.63353997 154.76626587 77.89434814 C148.54269381 83.55661702 141.67721945 87.08298849 133.92251587 90.20294189 C128.46763443 92.43747164 125.33727697 94.07417339 122.29751587 99.14044189 C119.77915684 106.69551897 121.97730453 111.32457906 125.36782837 118.25177002 C125.92212524 119.34940674 126.47642212 120.44704346 127.04751587 121.57794189 C127.58634399 122.67171143 128.12517212 123.76548096 128.68032837 124.89239502 C131.56558022 130.73839432 131.56558022 130.73839432 134.56314087 136.52716064 C137.44152206 141.9960849 138.29818963 146.06492261 137.29751587 152.14044189 C134.90512576 157.01723711 131.58182632 159.94999794 127.29751587 163.14044189 C124.28074048 164.14603369 122.0824038 164.33849853 118.92251587 164.39044189 C117.51872681 164.42911377 117.51872681 164.42911377 116.08657837 164.46856689 C112.62711907 164.06157168 111.09100577 163.24190816 108.29751587 161.14044189 C106.76632008 158.6848264 105.49483058 156.3761392 104.25845337 153.78106689 C103.89562256 153.04828018 103.53279175 152.31549347 103.15896606 151.5605011 C101.98308123 149.17694863 100.8276252 146.78412186 99.67251587 144.39044189 C98.86520425 142.74300161 98.05676732 141.09611231 97.2472229 139.44976807 C94.91183017 134.68902426 92.60251929 129.91595334 90.29751587 125.14044189 C89.70400296 123.91522936 89.11027434 122.69012128 88.51626587 121.46514893 C85.79968409 115.85455862 83.12017544 110.2280253 80.4659729 104.58770752 C79.29097448 102.12674133 78.07921932 99.68718388 76.85610962 97.24981689 C76.47535278 96.47855469 76.09459595 95.70729248 75.70230103 94.91265869 C75.00739889 93.50685646 74.30122969 92.10652629 73.58023071 90.71392822 C71.2098434 85.86174666 70.82459777 82.41864278 71.29751587 77.14044189 C73.36240284 71.54880106 77.0945653 67.96813242 82.29751587 65.14044189 C85.96101141 63.91927672 89.36783084 63.96681291 93.18423462 63.92950439 C94.77864564 63.90141953 96.37304654 63.87275497 97.96743774 63.84356689 C100.4709324 63.8024578 102.97424136 63.76555585 105.47793579 63.73907471 C107.90126278 63.71124519 110.32374136 63.66536204 112.74673462 63.61700439 C113.48348923 63.61375153 114.22024384 63.61049866 114.97932434 63.60714722 C121.17412566 63.46269713 126.96341794 62.34837237 131.61001587 57.95294189 C135.77287884 51.01483694 137.62621348 44.29149071 136.29751587 36.14044189 C133.49965933 31.85622406 130.66619324 30.67457003 125.7740078 29.53550529 C120.63636573 28.71592082 115.44979758 28.85822421 110.25967407 28.86920166 C108.27905813 28.86117897 106.29844219 28.85315383 104.31782663 28.84503639 C102.20302149 28.8382091 100.08825955 28.83618321 97.97344398 28.83548164 C93.55651143 28.83353158 89.13973374 28.81542972 84.72285461 28.79472351 C73.7580389 28.74567387 62.79318161 28.71462777 51.82827759 28.69342041 C43.29343658 28.67689316 34.75872977 28.65409012 26.2239787 28.61039966 C21.83477914 28.58864281 17.44583472 28.58056342 13.05658495 28.5827924 C9.6867083 28.58073342 6.31700063 28.5593773 2.94717407 28.54107666 C1.73407059 28.54565384 0.5209671 28.55023102 -0.72889709 28.5549469 C-1.84329163 28.54529907 -2.95768616 28.53565125 -4.10585022 28.52571106 C-5.07163844 28.52369973 -6.03742666 28.5216884 -7.03248119 28.51961613 C-10.2332909 28.06506061 -12.09738228 27.02917057 -14.70248413 25.14044189 C-17.58649119 21.00669844 -18.1341183 17.92459571 -17.27670288 13.09356689 C-15.69069584 7.69898512 -12.16776291 4.31313997 -7.70248413 1.14044189 C-5.03167022 -0.19496506 -2.99198684 0.00840251 0 0 Z " fill="#FEFEFE" transform="translate(619.7024841308594,82.85955810546875)"/>
<path d="M0 0 C1.61339516 -0.01902626 1.61339516 -0.01902626 3.25938416 -0.03843689 C4.41459061 -0.03550125 5.56979706 -0.03256561 6.76000977 -0.02954102 C7.96271011 -0.03478287 9.16541046 -0.04002472 10.40455627 -0.04542542 C12.95231353 -0.0518472 15.50010044 -0.05050665 18.04785156 -0.04199219 C21.90623419 -0.03354617 25.76310389 -0.06214056 29.62133789 -0.09399414 C61.64250765 -0.18732607 61.64250765 -0.18732607 74.51391602 11.40405273 C81.04379448 18.07256981 83.56386185 25.80276313 83.95141602 35.02905273 C83.57371934 48.35144456 79.4439846 61.76901858 70.70141602 71.90405273 C67.45674011 75.92801762 66.63840829 78.77603168 67.00610352 83.91577148 C67.70015427 87.31662016 68.93569208 90.23131669 70.54125977 93.29858398 C75.45438474 103.93382237 72.04115161 116.83845206 68.51391602 127.40405273 C62.84148372 141.90399801 53.02252029 151.47899428 39.07641602 158.15405273 C27.84757074 162.98229738 16.90392843 164.55011901 4.79516602 164.64233398 C3.27010437 164.6544416 3.27010437 164.6544416 1.7142334 164.66679382 C-0.42722906 164.68056988 -2.56871287 164.69132073 -4.71020508 164.69921875 C-6.89419006 164.71077509 -9.07814601 164.73128393 -11.26196289 164.76074219 C-14.43061357 164.80343287 -17.59843141 164.81958549 -20.76733398 164.82983398 C-21.73731323 164.84734207 -22.70729248 164.86485016 -23.70666504 164.88288879 C-29.85508792 164.86329129 -33.45112076 163.99075594 -38.48608398 160.40405273 C-42.08497784 156.57297218 -42.11248488 152.18135094 -41.96264648 147.13452148 C-41.32309341 143.47019689 -39.93763544 141.46552847 -37.48217773 138.74389648 C-31.4525865 134.69663661 -24.33873042 135.11022672 -17.36499023 135.09545898 C-15.19115937 135.07030439 -13.0173313 135.04490628 -10.84350586 135.01928711 C-7.4423899 134.99055359 -4.04132249 134.96651268 -0.64013672 134.94775391 C2.6601607 134.92602729 5.95990533 134.88659131 9.26000977 134.84545898 C10.26857529 134.84534317 11.27714081 134.84522736 12.31626892 134.84510803 C19.03209798 134.75158205 24.97070435 134.09104626 30.50219727 129.89624023 C36.19647785 122.94216306 38.15888358 115.89735732 37.85766602 106.92358398 C37.34171079 103.1418667 36.1670018 101.12516636 33.51391602 98.40405273 C26.69759957 94.80999497 20.50924776 94.26352414 12.92407227 94.19311523 C11.23591141 94.16505384 9.54776049 94.13638942 7.85961914 94.10717773 C5.21549689 94.06592088 2.57156169 94.02900442 -0.07275391 94.00268555 C-2.6366938 93.97499566 -5.19980857 93.92913898 -7.76342773 93.88061523 C-8.54797836 93.87736237 -9.33252899 93.8741095 -10.14085388 93.87075806 C-16.08229242 93.7384965 -20.20522012 92.37669175 -24.79858398 88.40405273 C-27.82662055 84.81526866 -27.8223864 81.18276523 -27.77124023 76.68920898 C-27.2148971 72.2308428 -24.6919096 69.46371766 -21.42358398 66.59155273 C-18.14374209 64.58132706 -15.4390705 64.27479503 -11.68261719 64.24633789 C-10.70762772 64.23607574 -9.73263824 64.2258136 -8.72810364 64.21524048 C-7.67499496 64.20793915 -6.62188629 64.20063782 -5.53686523 64.19311523 C-3.30443614 64.16503775 -1.07201436 64.13637323 1.16040039 64.10717773 C4.67789435 64.06598871 8.19525296 64.02909901 11.71289062 64.00268555 C15.10909253 63.9749751 18.50467409 63.92909337 21.90063477 63.88061523 C22.94362228 63.87736237 23.9866098 63.8741095 25.061203 63.87075806 C32.08704754 63.75327797 38.42155845 63.24567861 43.82641602 58.27905273 C47.62325358 51.81036651 49.62243519 44.93334527 48.51391602 37.40405273 C47.28193521 34.27016608 46.73028815 33.53682654 43.76391602 31.71655273 C37.72155311 29.27636771 31.80514468 29.26065176 25.38891602 29.22827148 C23.61286235 29.20508462 21.83682062 29.18096776 20.06079102 29.15600586 C17.28271316 29.12086209 14.50508017 29.09151017 11.72680664 29.078125 C9.03030894 29.06261966 6.33507735 29.02241554 3.63891602 28.97827148 C2.81375488 28.9801799 1.98859375 28.98208832 1.13842773 28.98405457 C-4.19804696 28.87137562 -7.23095256 27.90743884 -11.48608398 24.40405273 C-14.87178865 20.56692078 -14.99899571 16.77003811 -14.83764648 11.84155273 C-14.31185896 8.19609255 -12.93074303 6.11299924 -10.48608398 3.40405273 C-6.87782933 0.84104636 -4.40775506 0.02529467 0 0 Z " fill="#FFFFFF" transform="translate(188.486083984375,82.595947265625)"/>
<path d="M0 0 C1.03769531 -0.04898438 2.07539063 -0.09796875 3.14453125 -0.1484375 C6.31198191 0.39641281 7.83899285 1.13743348 9.97045898 3.54736328 C12.73251139 7.6951515 14.4507177 12.39963273 16.3125 17 C17.16268403 19.07822763 18.01919525 21.15388109 18.8828125 23.2265625 C19.25422363 24.14260254 19.62563477 25.05864258 20.00830078 26.00244141 C21.55286314 29.11011365 23.09152894 30.82701447 26.1875 32.375 C28.20074752 32.42759886 28.20074752 32.42759886 30.4375 32.1875 C31.18515625 32.13207031 31.9328125 32.07664062 32.703125 32.01953125 C39.10711001 30.35812004 42.98743102 25.65262732 47 20.75 C48.04868332 19.50063364 49.09816933 18.25194062 50.1484375 17.00390625 C50.91752441 16.08375732 50.91752441 16.08375732 51.70214844 15.14501953 C53.81183166 12.63101504 55.95591361 10.15039241 58.125 7.6875 C59.12853516 6.53701172 59.12853516 6.53701172 60.15234375 5.36328125 C64.22089614 1.38843832 67.49355138 -0.06689848 73.1875 -0.125 C77.52188795 -0.02903569 78.80279344 0.08835589 82.375 2.75 C85.26646246 6.93763528 85.60244738 9.22965246 85.1875 14.375 C83.26655901 20.64401686 78.99345361 25.05443971 74.6015625 29.75390625 C72.25157106 32.30543417 70.05412338 34.92684906 67.875 37.625 C64.89116807 41.31703637 61.84986599 44.94299965 58.73681641 48.52563477 C56.19655726 51.45537896 53.6866951 54.41019454 51.1875 57.375 C50.49648193 58.19049316 50.49648193 58.19049316 49.79150391 59.02246094 C48.5055373 60.55922161 47.25202678 62.12296415 46 63.6875 C45.28457031 64.57050781 44.56914063 65.45351562 43.83203125 66.36328125 C41.04244698 71.47199734 40.51797407 75.89921378 42.02244568 81.46247864 C43.34045131 85.08666934 44.77860309 88.64794167 46.26953125 92.203125 C46.80599638 93.52279204 47.34069068 94.8431802 47.873703 96.16424561 C49.27424009 99.6219362 50.69830894 103.06943425 52.12774658 106.51525879 C53.57672976 110.01995073 55.00326398 113.53374663 56.43164062 117.046875 C58.94642187 123.22412632 61.48055538 129.39305822 64.02912903 135.55645752 C64.41139145 136.48657654 64.79365387 137.41669556 65.1875 138.375 C65.5602153 139.24243835 65.9329306 140.10987671 66.31694031 141.00360107 C67.82686464 145.11662511 67.98989181 149.16386346 66.5 153.26953125 C63.76750568 158.49542665 59.86583955 162.48222015 54.1875 164.375 C50.10104539 164.77293191 46.3644066 164.74947028 42.4375 163.5 C34.35152999 155.86325055 31.07628785 141.21882213 27.12060547 131.00561523 C26.20952661 128.65860202 25.28893607 126.31549556 24.3671875 123.97265625 C24.09212372 123.25392838 23.81705994 122.5352005 23.53366089 121.79469299 C21.67390286 117.00569062 21.67390286 117.00569062 18.1875 113.375 C13.9858262 112.11049627 10.22975177 112.04147943 6.0625 113.375 C-0.49807379 117.93887742 -5.248951 124.03495961 -10.2265625 130.21875 C-13.70759063 134.50900059 -17.36231318 138.6496749 -21.00317383 142.80419922 C-23.52227123 145.6893951 -26.00822654 148.5802318 -28.36328125 151.6015625 C-37.57420919 163.4055496 -37.57420919 163.4055496 -45.32421875 164.83984375 C-49.72362522 165.10946358 -52.85386072 164.84056912 -56.375 162.0625 C-59.21155845 158.93501247 -59.72484284 157.28663447 -60.125 153.125 C-59.53022018 145.98764219 -54.84156509 140.92007694 -50.25 135.75 C-49.17665275 134.51990684 -48.10374572 133.28942942 -47.03125 132.05859375 C-46.22300781 131.13602783 -46.22300781 131.13602783 -45.3984375 130.19482422 C-42.985505 127.42604361 -40.61672885 124.62077317 -38.25 121.8125 C-37.3425134 120.73822593 -36.43496135 119.66400714 -35.52734375 118.58984375 C-35.07987793 118.05987793 -34.63241211 117.52991211 -34.17138672 116.98388672 C-32.34551629 114.82210337 -30.51765757 112.66200688 -28.68945312 110.50219727 C-27.77234866 109.41842045 -26.85568102 108.33427383 -25.93945312 107.24975586 C-23.64426048 104.53380511 -21.34262043 101.82385842 -19.02734375 99.125 C-14.32240841 93.62917368 -9.70251323 88.07812766 -5.25 82.375 C-4.44433594 81.34375 -3.63867188 80.3125 -2.80859375 79.25 C0.33768412 74.71837473 1.54701316 71.97108338 0.66603088 66.43823242 C-0.27768432 62.36931257 -1.97259621 58.58759885 -3.59375 54.75 C-3.96729614 53.84427246 -4.34084229 52.93854492 -4.72570801 52.00537109 C-5.91371636 49.1253659 -7.11180139 46.24973565 -8.3125 43.375 C-9.8946173 39.58706441 -11.46610183 35.79497373 -13.03125 32 C-13.39480591 31.13938965 -13.75836182 30.2787793 -14.13293457 29.39208984 C-19.08174226 17.38530173 -19.08174226 17.38530173 -16.8125 11.3125 C-13.75658821 4.00673879 -7.65694964 0.24547557 0 0 Z " fill="#FFFFFF" transform="translate(495.8125,82.625)"/>
<path d="M0 0 C5.34678166 4.06007648 8.38846096 8.41538287 10.5 14.75 C10.5 19.94486898 9.20598554 23.82982685 5.7265625 27.74609375 C0.64495715 32.42856918 -3.7904025 34.95140417 -10.8125 35 C-16.46552508 34.26472478 -19.08460353 30.36694089 -22.45703125 26.09765625 C-25.20584952 22.93888038 -27.04280114 21.95298225 -31.1640625 21.37890625 C-38.732093 21.2091747 -44.22227641 22.41028577 -50.5 26.75 C-54.5400178 30.7900178 -56.30600985 34.57731028 -56.8125 40.25 C-56.45698893 44.231724 -56.07495417 45.70687234 -53.5 48.75 C-45.6688912 54.8682649 -36.53004283 58.65324656 -27.53710938 62.71875 C-15.3085435 68.41669741 -5.80623486 74.90079665 -0.6953125 87.77734375 C3.17006945 100.72372575 -0.65166721 115.24001482 -6.25 127.125 C-14.73514068 142.81932035 -27.94745827 153.9511757 -44.69921875 159.8828125 C-59.68909826 164.09552079 -76.32551903 164.85576583 -90.4375 157.375 C-98.7166852 152.25338726 -103.18881092 146.37237816 -107.5 137.75 C-108.03749296 132.85088383 -108.06674874 128.9052955 -105.875 124.4375 C-101.69567251 119.70826099 -97.81941982 116.01388396 -91.5 114.75 C-87.38330535 114.68504229 -84.34601073 115.26931209 -80.75 117.3125 C-78.26658316 120.00286825 -77.05191067 122.56702015 -75.51953125 125.8515625 C-73.37978532 129.83591699 -70.37555147 131.38947881 -66.3125 133.0625 C-56.62408596 134.80959106 -48.64115585 132.18134749 -40.5 126.75 C-35.32333886 121.72324218 -32.52993159 115.98215524 -32.1875 108.75 C-32.34679956 104.09491277 -33.59752645 100.67309657 -36.94140625 97.29296875 C-41.16113611 93.58234783 -45.30272914 91.11092604 -50.4375 88.875 C-51.93550367 88.19273927 -53.43288439 87.50910935 -54.9296875 86.82421875 C-55.68604492 86.48181152 -56.44240234 86.1394043 -57.22167969 85.78662109 C-82.71221473 74.18859154 -82.71221473 74.18859154 -88.5 60.75 C-92.52833335 48.38095081 -88.46751548 34.24753097 -82.875 23.0625 C-74.48710109 8.85314887 -61.8374736 -0.88537545 -46.12109375 -5.59375 C-45.25613281 -5.8103125 -44.39117188 -6.026875 -43.5 -6.25 C-42.38818359 -6.53423828 -42.38818359 -6.53423828 -41.25390625 -6.82421875 C-26.96699915 -9.03311644 -12.3450226 -7.91022709 0 0 Z " fill="#FFFFFF" transform="translate(1089.5,87.25)"/>
<path d="M0 0 C1.05034424 0.00491455 2.10068848 0.0098291 3.18286133 0.01489258 C11.90639194 0.14693391 19.8490816 0.42093835 27.25 5.5 C29.58293542 9.1200722 30.55024451 12.06321072 30.0625 16.3125 C27.84407863 23.14735062 24.13133819 28.41521292 18.0625 32.3125 C12.76913156 34.07695615 7.10090362 33.60899507 1.625 32.8125 C-13.01542916 30.75770292 -28.52889034 34.16356231 -40.9375 42.3125 C-55.91508165 53.82291888 -67.43430828 70.25667111 -69.9375 89.3125 C-70.97958848 103.06998 -70.22337531 115.36693204 -60.9375 126.3125 C-54.80377166 132.12271946 -47.44442557 135.11301267 -39.5625 137.8125 C-34.50251726 139.90628596 -34.50251726 139.90628596 -32.9375 143.3125 C-31.43320853 149.65201405 -32.02522036 154.45433749 -34.9375 160.3125 C-38.62752621 164.77937383 -42.42189244 167.59375498 -48 169.1875 C-62.12521009 169.63591937 -76.07086965 161.77950281 -86.46875 152.7578125 C-93.54757809 145.74618847 -98.47271187 137.61755601 -101.9375 128.3125 C-102.2571875 127.47074219 -102.576875 126.62898438 -102.90625 125.76171875 C-110.28299575 102.16296269 -103.05949864 75.82762895 -92.125 54.625 C-77.44162019 29.03288815 -54.39433907 11.61026152 -26.328125 3.13671875 C-17.49926613 0.99053301 -9.09106969 -0.05030747 0 0 Z " fill="#FFFFFF" transform="translate(898.9375,79.6875)"/>
<path d="M0 0 C2.69406258 1.99097796 3.67322266 3.9132008 4.49365234 7.11083984 C5.08860254 12.29719107 3.72685091 17.19038714 2.578125 22.22265625 C2.33419006 23.33638107 2.09025513 24.4501059 1.83892822 25.59757996 C1.02140401 29.31641858 0.18666448 33.03116616 -0.6484375 36.74609375 C-1.2287353 39.36525626 -1.80812999 41.98460142 -2.38623047 44.60424805 C-3.31829709 48.82303315 -4.25243726 53.04133649 -5.19277954 57.25828552 C-7.57406634 67.93778162 -9.91576547 78.62550498 -12.24142075 89.31724548 C-13.38970824 94.59225668 -14.54264327 99.86625357 -15.69580269 105.14020157 C-16.64038584 109.46075993 -17.58317085 113.78169175 -18.52166748 118.10357666 C-19.41250557 122.20415279 -20.31035797 126.30313469 -21.2133255 130.40105629 C-21.54595422 131.91608803 -21.87617467 133.43165086 -22.20378876 134.94777489 C-22.65556669 137.03673902 -23.11604283 139.12360824 -23.57861328 141.21020508 C-23.83474396 142.38158524 -24.09087463 143.55296539 -24.35476685 144.75984192 C-26.42408558 152.33110954 -29.30027102 157.24054805 -35.7734375 161.93359375 C-41.83197026 163.98916737 -49.1768896 164.61057249 -55.05078125 161.78515625 C-57.2734375 160.12109375 -57.2734375 160.12109375 -59.2734375 157.12109375 C-60.3265253 148.91936841 -58.46650887 140.93000743 -56.65893555 132.97387695 C-56.38090088 131.70740326 -56.10286621 130.44092957 -55.81640625 129.13607788 C-55.06027587 125.69380861 -54.28983608 122.25489314 -53.51628852 118.81650186 C-52.70521305 115.20116704 -51.90652681 111.58309429 -51.1061554 107.96537781 C-49.76138571 101.89562625 -48.40767799 95.82792444 -47.0480957 89.76147461 C-45.48013296 82.76491563 -43.9243918 75.76572944 -42.37560052 68.76490337 C-40.87988611 62.00453902 -39.37746367 55.24568499 -37.87134743 48.48763084 C-37.23284343 45.62261648 -36.59630422 42.75717632 -35.96130943 39.89138222 C-35.07326445 35.88603991 -34.17523894 31.8829986 -33.27612305 27.88012695 C-33.01573746 26.70122391 -32.75535187 25.52232086 -32.48707581 24.30769348 C-28.69649417 7.54415042 -28.69649417 7.54415042 -23.2734375 2.12109375 C-16.51434631 -1.94623638 -7.47453725 -2.88964069 0 0 Z " fill="#FFFFFF" transform="translate(980.2734375,83.87890625)"/>
<path d="M0 0 C0.66408875 -0.00511093 1.32817749 -0.01022186 2.01239014 -0.01548767 C4.19658548 -0.02933015 6.3804634 -0.02843104 8.56469727 -0.02612305 C10.09017554 -0.03001284 11.61565273 -0.0343481 13.14112854 -0.03910828 C16.33451858 -0.04655892 19.52779805 -0.04628757 22.72119141 -0.04101562 C26.80444634 -0.03522161 30.88724757 -0.05215561 34.97042751 -0.0753603 C38.11980313 -0.09012355 41.26907011 -0.09096585 44.4184742 -0.08785057 C45.92350221 -0.08836245 47.42853651 -0.09357517 48.93353081 -0.10366249 C51.04192091 -0.11606086 53.14943541 -0.10921603 55.2578125 -0.09765625 C56.45518539 -0.09828568 57.65255829 -0.0989151 58.88621521 -0.0995636 C63.60646556 0.43451962 67.00760295 1.85145753 70.06860352 5.5246582 C71.76444304 9.6700437 71.91310569 13.02621391 70.53735352 17.32543945 C68.26344652 22.52994211 65.17203302 25.58330304 60.19360352 28.2746582 C56.77105962 29.41550617 54.11678829 29.4156155 50.5065918 29.43579102 C49.83143524 29.44075592 49.15627869 29.44572083 48.46066284 29.45083618 C46.22840351 29.46543418 43.99621523 29.47225567 41.76391602 29.4777832 C40.21076455 29.4835364 38.6576131 29.48929412 37.10446167 29.49505615 C33.84787668 29.50555928 30.59131634 29.51140651 27.3347168 29.51489258 C23.16614281 29.52037728 18.99789546 29.54440744 14.8294239 29.57286453 C11.62091119 29.59150709 8.41247694 29.59669736 5.20391464 29.59822845 C3.66734913 29.60125164 2.13078488 29.60926893 0.59427261 29.62241364 C-1.55760162 29.63950932 -3.70868072 29.63758586 -5.8605957 29.63110352 C-7.69568192 29.63657196 -7.69568192 29.63657196 -9.56784058 29.64215088 C-13.89511477 29.15111672 -16.42668993 27.51163649 -19.61889648 24.6496582 C-21.49798222 20.89148673 -21.43162839 17.38729471 -20.80639648 13.2746582 C-18.74015691 7.58694496 -14.96577642 3.8132426 -9.57164001 1.18635559 C-6.25511549 0.09290154 -3.4924867 0.01344773 0 0 Z " fill="#FFFFFF" transform="translate(1134.806396484375,146.725341796875)"/>
<path d="M0 0 C0.99591408 -0.0098568 0.99591408 -0.0098568 2.01194763 -0.01991272 C4.20148851 -0.03956729 6.39096113 -0.05128929 8.58056641 -0.0612793 C9.33065601 -0.06535482 10.08074562 -0.06943035 10.85356522 -0.07362938 C14.82213309 -0.09445443 18.79066673 -0.10877277 22.75927734 -0.11816406 C26.85047678 -0.12923481 30.9411333 -0.16365197 35.03214073 -0.20333576 C38.18579092 -0.22951539 41.33931177 -0.23785694 44.49306107 -0.24144554 C46.00090842 -0.24630627 47.5087502 -0.25790572 49.01649094 -0.27648354 C51.12991899 -0.30091074 53.24194188 -0.29990483 55.35546875 -0.29296875 C57.1560524 -0.30176811 57.1560524 -0.30176811 58.99301147 -0.31074524 C63.01648178 0.28139924 65.15555717 1.64905628 68.30712891 4.17700195 C71.01498699 8.23878907 70.94990347 11.40777341 70.30712891 16.17700195 C68.2563528 21.86374868 64.46124386 25.63843141 59.07810974 28.26431274 C55.73464295 29.36556398 52.92965778 29.44542633 49.40893555 29.4675293 C48.73509323 29.47424652 48.06125092 29.48096375 47.36698914 29.48788452 C45.15034514 29.50680621 42.93400477 29.51078545 40.71728516 29.51293945 C39.16938657 29.51937057 37.6214892 29.52609917 36.07359314 29.53311157 C32.83313173 29.5450691 29.59277683 29.54879389 26.35229492 29.54760742 C22.20839965 29.54740412 18.06518928 29.57472446 13.92145634 29.60915184 C10.72575263 29.63143129 7.53021364 29.63544468 4.33444023 29.63438797 C2.80706862 29.63674166 1.27969231 29.64555216 -0.24760246 29.6610527 C-2.38731262 29.68073892 -4.52554724 29.67486664 -6.6652832 29.6628418 C-7.88042099 29.66569183 -9.09555878 29.66854187 -10.34751892 29.67147827 C-14.91356816 28.99657079 -18.25898859 27.06711979 -21.06787109 23.36450195 C-22.69769923 17.66010349 -21.8051783 13.12148848 -19.03271484 8.0402832 C-14.15107062 1.25152433 -7.93327396 0.06514592 0 0 Z " fill="#00AAFF" transform="translate(609.69287109375,146.822998046875)"/>
<path d="M0 0 C1.29847366 -0.00960754 2.59694733 -0.01921509 3.93476868 -0.02911377 C5.34998396 -0.03396232 6.7652013 -0.03824101 8.18041992 -0.04199219 C9.63766989 -0.04774871 11.09491984 -0.05350638 12.5521698 -0.05926514 C15.6060725 -0.06975894 18.65994901 -0.07561209 21.71386719 -0.07910156 C25.61430581 -0.0845807 29.51439438 -0.10860285 33.4147234 -0.13707352 C36.42515554 -0.15575947 39.43550439 -0.16090867 42.44598961 -0.16243744 C43.88321533 -0.16545144 45.32044002 -0.17343741 46.75760841 -0.18662262 C60.83790957 -0.30657398 60.83790957 -0.30657398 66.59838867 3.16113281 C69.60998384 6.5613209 70.08779621 9.65946407 69.87573242 14.18066406 C69.04902526 20.0840518 65.67318663 23.32232136 61.31713867 26.96191406 C57.64409278 29.52469835 54.15368437 29.29839169 49.81958008 29.32226562 C49.13466995 29.32723053 48.44975983 29.33219543 47.74409485 29.33731079 C45.47937005 29.35190997 43.21471529 29.35873047 40.94995117 29.36425781 C39.37437946 29.37001091 37.79880776 29.37576862 36.22323608 29.38153076 C32.91957269 29.39203421 29.6159336 29.39788124 26.31225586 29.40136719 C22.08314977 29.40685201 17.85436562 29.43088233 13.62536049 29.45933914 C10.37052477 29.47798046 7.1157664 29.4831719 3.86088181 29.48470306 C2.30198785 29.48772652 0.74309517 29.49574472 -0.81574631 29.50888824 C-2.99875004 29.52598132 -5.18096981 29.52406107 -7.36401367 29.51757812 C-8.60516937 29.52122375 -9.84632507 29.52486938 -11.12509155 29.52862549 C-15.72312469 29.01291259 -18.33023178 27.49112121 -21.21411133 23.91113281 C-23.00129853 19.7723835 -23.09315911 16.44454531 -21.78051758 12.11035156 C-19.40921079 6.51406754 -15.88176853 3.65503248 -10.40161133 1.16113281 C-6.91617106 0.05620604 -3.64360992 0.02177581 0 0 Z " fill="#FFFFFF" transform="translate(1120.401611328125,217.8388671875)"/>
<path d="M0 0 C1.91733948 -0.01429802 1.91733948 -0.01429802 3.87341309 -0.02888489 C5.25089547 -0.02862345 6.62837786 -0.02768637 8.00585938 -0.02612305 C9.43640262 -0.03001611 10.86694472 -0.03435203 12.29748535 -0.03910828 C15.28641519 -0.04654321 18.27522684 -0.0462986 21.26416016 -0.04101562 C25.08047238 -0.03521684 28.89629992 -0.05217466 32.71253204 -0.0753603 C35.66378573 -0.0901411 38.61492374 -0.0909636 41.56620789 -0.08785057 C42.97272198 -0.08836135 44.37924297 -0.09355303 45.78572083 -0.10366249 C59.48014082 -0.19004707 59.48014082 -0.19004707 65.34960938 3.2746582 C68.08903532 6.01408415 69.17763112 8.40514749 69.34960938 12.2746582 C68.13428154 18.23193484 66.2156347 22.4271033 61.34960938 26.2746582 C56.81090805 28.95315809 53.49524264 29.65565103 48.24609375 29.67871094 C47.22048088 29.68900581 47.22048088 29.68900581 46.17414856 29.69950867 C43.9303366 29.71770178 41.68722874 29.71395074 39.44335938 29.70825195 C37.87446874 29.71281692 36.30558009 29.71812343 34.73669434 29.72413635 C31.45507665 29.73305235 28.17370253 29.73066115 24.89208984 29.72070312 C20.69550158 29.70920674 16.49975394 29.72944209 12.30327606 29.75862026 C9.06551819 29.77700117 5.82796116 29.77668624 2.59016418 29.77098274 C1.043267 29.7708298 -0.50364403 29.77685151 -2.05049133 29.78927422 C-4.21648339 29.80422183 -6.38092996 29.79348266 -8.546875 29.77636719 C-10.39170471 29.77611794 -10.39170471 29.77611794 -12.27380371 29.77586365 C-16.31240747 29.17639139 -18.48076464 27.80145698 -21.65039062 25.2746582 C-23.96232172 21.65598344 -23.87073704 18.46947155 -23.18945312 14.26293945 C-21.74338911 8.92926855 -18.17436107 5.22049942 -13.65039062 2.2746582 C-8.9865458 0.70842435 -4.90887243 0.02022887 0 0 Z " fill="#FE9800" transform="translate(595.650390625,217.725341796875)"/>
<path d="M0 0 C0.71402481 -0.00817749 1.42804962 -0.01635498 2.16371155 -0.02478027 C4.53125162 -0.04963192 6.89873175 -0.06614971 9.26635742 -0.08056641 C10.47885949 -0.08855192 10.47885949 -0.08855192 11.71585655 -0.09669876 C15.99448066 -0.12342954 20.2730756 -0.14280451 24.55175781 -0.15722656 C28.97054386 -0.17387327 33.3885839 -0.21865059 37.8070879 -0.26959801 C41.20518345 -0.30325896 44.60310168 -0.31480266 48.0013485 -0.32045364 C49.63005969 -0.32716953 51.25875909 -0.34240055 52.88730812 -0.36634445 C55.16897941 -0.39797642 57.44863564 -0.39803702 59.73046875 -0.390625 C61.67666862 -0.40275528 61.67666862 -0.40275528 63.66218567 -0.41513062 C67.92449032 0.34771346 69.36755907 1.88191773 72.05932617 5.19287109 C73.66234171 8.39890216 73.40532341 11.70678571 73.05932617 15.19287109 C71.21013463 20.63166976 67.6834578 23.96648835 63.05932617 27.19287109 C59.59711605 28.34694113 56.85803582 28.34828358 53.20458984 28.38574219 C52.16500374 28.39800842 52.16500374 28.39800842 51.10441589 28.41052246 C48.81205093 28.43532379 46.51974767 28.45187861 44.22729492 28.46630859 C43.44319056 28.47163227 42.65908619 28.47695595 41.85122108 28.48244095 C37.70111698 28.50914932 33.55104272 28.52853181 29.40087891 28.54296875 C25.96994372 28.55630951 22.53960309 28.58416689 19.10888672 28.625 C14.96213126 28.67435201 10.81591515 28.69909256 6.66887856 28.70619583 C5.09123152 28.71290193 3.51359622 28.72810752 1.93611717 28.75208664 C-0.2758079 28.78379247 -2.48566024 28.78376843 -4.69775391 28.77636719 C-6.58280388 28.78849747 -6.58280388 28.78849747 -8.50593567 28.8008728 C-13.06149834 27.99446784 -14.68233972 26.42462981 -17.94067383 23.19287109 C-19.54368936 19.98684003 -19.28667107 16.67895648 -18.94067383 13.19287109 C-15.88386772 4.2022649 -9.01367356 0.08950766 0 0 Z " fill="#FFFFFF" transform="translate(1146.940673828125,82.80712890625)"/>
<path d="M0 0 C1.64255768 -0.01441132 1.64255768 -0.01441132 3.31829834 -0.02911377 C4.4974884 -0.03336365 5.67667847 -0.03761353 6.89160156 -0.04199219 C8.1099469 -0.04769226 9.32829224 -0.05339233 10.58355713 -0.05926514 C13.16246676 -0.06871139 15.74138845 -0.07524763 18.3203125 -0.07910156 C22.25314571 -0.08879551 26.18545373 -0.11981875 30.11816406 -0.15136719 C32.62597347 -0.15789867 35.1337866 -0.16314857 37.64160156 -0.16699219 C39.39824127 -0.18551239 39.39824127 -0.18551239 41.19036865 -0.20440674 C47.69006335 -0.18679623 52.65955025 0.29077015 58.53222656 3.16113281 C62.21907731 6.9425182 63.41207157 9.69524195 63.84472656 14.97363281 C63.77200861 19.37710859 62.44189025 21.79204854 59.53222656 25.16113281 C53.75147678 30.58988153 47.17213438 29.73934732 39.59472656 29.69238281 C38.22761764 29.69508088 36.86051059 29.69896592 35.4934082 29.70397949 C32.63539263 29.70985993 29.77787887 29.70135963 26.91992188 29.68261719 C23.26805168 29.65982734 19.61735751 29.67295841 15.9655304 29.69690704 C13.14464559 29.71140516 10.32403671 29.70674094 7.50314331 29.69639587 C5.50574982 29.69245391 3.50834534 29.70453938 1.51098633 29.71691895 C-6.60900588 29.63310002 -10.3612205 28.9844752 -16.28027344 23.47363281 C-18.50318037 19.14481406 -19.18551073 14.61587928 -17.80761719 9.90332031 C-15.85215036 5.6123769 -13.93124249 3.05810716 -9.46777344 1.16113281 C-6.26609226 0.17948782 -3.34228176 0.02372696 0 0 Z " fill="#FE9800" transform="translate(72.4677734375,217.8388671875)"/>
<path d="M0 0 C0.65378128 -0.00014603 1.30756256 -0.00029205 1.9811554 -0.0004425 C4.14551086 0.00025504 6.30978063 0.00803999 8.47412109 0.01586914 C9.97341871 0.01773388 11.47271694 0.01915752 12.97201538 0.02015686 C16.92087482 0.0239776 20.86969756 0.03380411 24.81854248 0.04486084 C28.84695947 0.05508448 32.87538238 0.05965653 36.90380859 0.06469727 C44.81007545 0.07542677 52.71631246 0.09249789 60.62255859 0.11352539 C59.82946289 0.74057373 59.03636719 1.36762207 58.21923828 2.01367188 C54.36302794 5.13206837 51.21930921 8.32327354 49.62255859 13.11352539 C49.07609811 18.91093003 49.07609811 18.91093003 51.49755859 23.98852539 C52.54943359 25.04040039 52.54943359 25.04040039 53.62255859 26.11352539 C54.61255859 27.10352539 54.61255859 27.10352539 55.62255859 28.11352539 C47.10361244 28.1830955 38.58478538 28.23637205 30.06562519 28.26896191 C26.10964726 28.28460496 22.15386397 28.30581809 18.19799805 28.33984375 C14.37896504 28.37248617 10.56011903 28.39038864 6.74095726 28.39815712 C5.2853215 28.4036919 3.82969575 28.41450011 2.37413979 28.43071556 C0.33212957 28.45255561 -1.70911211 28.4554897 -3.7512207 28.45410156 C-4.91260056 28.4607634 -6.07398041 28.46742523 -7.27055359 28.47428894 C-10.74989386 28.0702772 -12.58866108 27.19801695 -15.37744141 25.11352539 C-18.26144847 20.97978193 -18.80907558 17.89767921 -17.95166016 13.06665039 C-16.36565311 7.67206861 -12.84272019 4.28622347 -8.37744141 1.11352539 C-5.54349754 -0.30344654 -3.16870402 -0.0059339 0 0 Z " fill="#C30100" transform="translate(620.37744140625,82.886474609375)"/>
<path d="M0 0 C0.98152039 -0.01283524 1.96304077 -0.02567047 2.9743042 -0.03889465 C4.03884827 -0.04628159 5.10339233 -0.05366852 6.20019531 -0.0612793 C7.83930878 -0.07338692 7.83930878 -0.07338692 9.51153564 -0.08573914 C11.82831227 -0.09958824 14.14510937 -0.11030668 16.46191406 -0.11816406 C20.00006991 -0.13536074 23.53728767 -0.17923882 27.07519531 -0.22338867 C29.32518844 -0.23351683 31.57518951 -0.24203254 33.82519531 -0.2487793 C34.88164246 -0.26628738 35.9380896 -0.28379547 37.02655029 -0.30183411 C43.1123307 -0.2839246 46.64857127 0.1087912 51.27832031 4.17700195 C54.42581543 7.84907958 54.80558546 11.21030251 54.62597656 15.89575195 C54.02644358 19.82976615 52.70289202 21.98677603 50.27832031 25.17700195 C44.86910938 28.83217781 39.69715413 28.62906933 33.40332031 28.6105957 C32.36062988 28.61583755 31.31793945 28.62107941 30.24365234 28.6264801 C28.04493091 28.63288728 25.84617514 28.63158026 23.64746094 28.62304688 C20.28941723 28.6145301 16.93307147 28.643329 13.57519531 28.67504883 C11.43457082 28.67666086 9.29394333 28.67608326 7.15332031 28.6730957 C5.65309326 28.68994667 5.65309326 28.68994667 4.12255859 28.70713806 C-1.82105107 28.64789657 -5.17259371 28.092296 -9.72167969 24.17700195 C-13.2735078 20.26999103 -13.33439031 15.98764089 -13.21777344 10.91137695 C-12.42687189 6.55207707 -10.07901903 3.94289292 -6.72167969 1.17700195 C-4.29667137 -0.03550221 -2.71015817 0.03081803 0 0 Z " fill="#C30000" transform="translate(108.7216796875,82.822998046875)"/>
<path d="M0 0 C0.82435547 -0.01160156 1.64871094 -0.02320313 2.49804688 -0.03515625 C7.55069025 -0.01092295 11.07008067 0.57691331 15.4375 3.375 C19.63848493 8.03014546 20.7918609 10.90535959 20.72265625 17.0546875 C20.172327 21.53270911 17.65835563 24.30212687 14.375 27.1875 C9.72847086 30.0353727 4.9559365 29.63072805 -0.3125 29.6875 C-1.19421875 29.71650391 -2.0759375 29.74550781 -2.984375 29.77539062 C-9.06617022 29.83421751 -12.62756574 28.99949187 -17.5625 25.375 C-20.58854991 21.84460844 -21.91780907 17.88678343 -21.5625 13.25 C-20.76236228 9.25715589 -19.28361303 6.45415422 -16.5625 3.375 C-10.95697447 0.35332747 -6.30318307 -0.08912592 0 0 Z " fill="#00AAFF" transform="translate(129.5625,146.625)"/>
</svg>
